<?xml version="1.0" encoding="utf-8"?>
<!-- Generator: Adobe Illustrator 25.0.0, SVG Export Plug-In . SVG Version: 6.00 Build 0)  -->
<svg version="1.1" id="Layer_1" xmlns="http://www.w3.org/2000/svg" xmlns:xlink="http://www.w3.org/1999/xlink" x="0px" y="0px"
	 viewBox="0 0 37.4 37.4" style="enable-background:new 0 0 37.4 37.4;" xml:space="preserve">
<path d="M9.5,21.3c0.3,2.1,1,3.9,2.1,5.7c-0.2,0.3-0.4,0.6-0.4,0.9c-0.1,0.9,0.4,1.7,1.3,1.9c0.9,0.2,1.8-0.4,2-1.2
	c0.3-1.2-0.7-2.3-2-2.1c-0.1,0-0.2,0-0.2-0.1c-0.8-1.4-1.4-2.8-1.7-4.3c-0.1-0.3-0.1-0.7-0.2-1c0-0.1,0-0.2,0.1-0.2
	c0.4-0.1,0.8-0.2,1.2-0.3c0.4-0.1,0.7-0.3,0.9-0.5c0.5-0.4,0.9-0.9,1.5-1.9c0.1,0.1,0.1,0.1,0.2,0.2c1.2,2,2.5,4,3.7,6.1
	c0,0.1,0.1,0.1,0.1,0.2c0-0.1,0.1-0.1,0.1-0.2c1.3-2,2.6-4,3.8-6c0.1-0.1,0.1-0.2,0.2-0.3c0.2,0.3,0.3,0.5,0.4,0.7
	c0.3,0.3,0.5,0.7,0.8,1c0.4,0.4,0.9,0.7,1.5,0.8c0.7,0.1,0.7,0.2,0.9,0.8c0.2,0.6,0.3,1.1,0.4,1.7c0,0.1,0,0.1,0,0.2
	c-0.3,0-0.5,0-0.7,0.1c-0.8,0.2-1.5,0.6-2,1.2c-1.3,1.3-2.1,2.8-2.4,4.6C21,29.9,21,30.5,21,31c0,0.1,0,0.2,0,0.3
	c0,0.3,0.1,0.5,0.4,0.6c0.2,0.1,0.5,0,0.7-0.2c0.1-0.2,0.1-0.5-0.1-0.7c-0.1-0.1-0.1-0.2-0.1-0.2c0-2.3,0.9-4.2,2.6-5.8
	c0.4-0.4,0.9-0.7,1.5-0.7c0.5-0.1,0.9,0.1,1.2,0.5c0.3,0.4,0.4,0.9,0.4,1.4c0,2.4-0.9,4.4-2.6,5.9c-0.1,0.1-0.2,0.1-0.3,0.1
	c-0.3,0-0.5,0.2-0.6,0.4c-0.1,0.2,0.1,0.5,0.3,0.6c0.2,0.1,0.5,0.1,0.7-0.1c0.1-0.1,0.2-0.2,0.3-0.3c1.1-0.9,1.9-2,2.4-3.3
	c0.4-0.9,0.6-1.9,0.7-2.9c0-0.7-0.1-1.5-0.4-2.1c-0.2-0.3-0.4-0.6-0.7-0.8c0,0-0.1-0.1-0.1-0.2c0-0.8-0.1-1.5-0.4-2.3c0,0,0,0,0-0.1
	c0.1,0,0.2,0.1,0.2,0.1c1.8,0.9,2.9,2.4,3.4,4.4c0.2,0.8,0.2,1.6,0.3,2.4c0.1,1,0.2,1.9,0.3,2.9c0.1,1,0.2,2.1,0.3,3.1
	c0,0.3-0.1,0.5-0.4,0.6c-0.9,0.4-1.9,0.6-2.8,0.8c-1.7,0.3-3.4,0.5-5.1,0.6c-1.7,0.1-3.3,0.1-5,0.2c-1.1,0-2.1-0.1-3.2-0.1
	c-0.9,0-1.7-0.1-2.6-0.2C10,36,7.7,35.7,5.5,34.9C5,34.7,4.9,34.7,5,34.1c0.2-1.7,0.3-3.4,0.5-5.2c0.1-0.9,0.2-1.9,0.3-2.8
	c0.4-2.1,1.5-3.7,3.5-4.7C9.3,21.4,9.4,21.4,9.5,21.3z"/>
<path d="M18.1,6.7L18.1,6.7c-1.1,0-2.1,0-3.2,0c-0.7,0-1.1,0.4-1.1,1c0,0.6,0,1.2,0,1.8c0,0.3-0.1,0.5-0.4,0.6c0,0-0.1,0.1-0.1,0.1
	c0,0.3,0,0.7,0,1c0.1,0.8,0.5,1.4,1,2c0.2,0.3,0.4,0.6,0.5,0.9c0.3,0.8,0.7,1.5,1.4,2c1.1,0.9,2.3,1,3.5,0.4c1-0.5,1.6-1.4,2-2.4
	c0.1-0.4,0.3-0.7,0.6-1c0.2-0.3,0.4-0.6,0.6-1c0.3-0.6,0.4-1.3,0.3-2c0-0.1-0.1-0.1-0.1-0.2c-0.3-0.1-0.4-0.3-0.4-0.6
	c0-0.5,0-1,0-1.5c0-0.2-0.1-0.5-0.1-0.7c-0.1-0.4-0.4-0.6-0.8-0.6c-0.1,0-0.3,0-0.4,0C20.2,6.7,19.2,6.7,18.1,6.7z M12,4.7l-0.1,0.2
	l0.5-1.1l-0.1,0l-0.4,0.5c0.2-0.5,0.5-0.9,1-1c0.2-0.1,0.4-0.2,0.5-0.4c0.1-0.1,0.2-0.3,0.3-0.3c0.4-0.4,0.9-0.7,1.4-1.1
	c0.2-0.2,0.5-0.2,0.7-0.3l-1,0.6l0,0.1c0.5-0.3,1-0.6,1.5-0.8c0.6-0.1,1.2-0.2,1.7-0.3c-0.7,0.1-1.3,0.3-1.9,0.6c1,0.1,2-0.4,3-0.3
	L18,1.2l0,0.1c0.9,0.1,1.8-0.1,2.7,0.1h-1.3l0,0c0,0,0.1,0,0.1,0c0.7,0.2,1.3,0.3,2,0.4c0.6,0.1,1.1,0.3,1.6,0.6c0,0,0.1,0,0.1,0.1
	C22.6,2.3,22,2.1,21.4,2c0,0,0.1,0,0.1,0.1c0.2,0.1,0.4,0.2,0.5,0.2c0.5,0.2,0.8,0.5,1.1,0.9c0.2,0.2,0.3,0.4,0.5,0.6
	c0.2,0.3,0.4,0.6,0.5,0.8l-0.1,0l-0.4-0.6l0,0l0.8,2.3l-0.1,0L24.3,6c0,1.5,0,3,0,4.4c0,1.3-0.4,2.5-1.2,3.5
	c-0.2,0.2-0.3,0.5-0.4,0.8c-0.5,1.3-1.3,2.3-2.5,3c-1.5,0.8-3.3,0.6-4.6-0.5c-0.9-0.7-1.4-1.6-1.8-2.6c-0.1-0.2-0.2-0.4-0.3-0.5
	c-0.6-0.8-1.1-1.6-1.2-2.5c-0.1-0.4-0.1-0.8-0.1-1.2c-0.1-0.8-0.2-1.7-0.2-2.5c-0.1-1,0-1.9,0.2-2.9C12,4.9,12.1,4.9,12,4.7
	C12.1,4.8,12,4.8,12,4.7z"/>
</svg>
