<?xml version="1.0" encoding="utf-8"?>
<!-- Generator: Adobe Illustrator 25.0.0, SVG Export Plug-In . SVG Version: 6.00 Build 0)  -->
<svg version="1.1" id="Layer_1" xmlns="http://www.w3.org/2000/svg" xmlns:xlink="http://www.w3.org/1999/xlink" x="0px" y="0px"
	 viewBox="0 0 37.4 37.4" style="enable-background:new 0 0 37.4 37.4;" xml:space="preserve">
<path d="M15.5,8.2h1.8V10c0,0.2,0.2,0.4,0.4,0.4h1.4c0.2,0,0.4-0.2,0.4-0.4V8.2h1.8c0.2,0,0.4-0.2,0.4-0.4V6.4
	c0-0.2-0.2-0.4-0.4-0.4h-1.8V4.1c0-0.2-0.2-0.4-0.4-0.4h-1.4c-0.2,0-0.4,0.2-0.4,0.4l0,1.8h-1.8c-0.2,0-0.4,0.2-0.4,0.4v1.4
	C15.1,8,15.3,8.2,15.5,8.2z M16.2,22.6c0-0.5-0.4-0.8-0.8-0.8h-2.8c-0.5,0-0.8,0.4-0.8,0.8v2.8c0,0.5,0.4,0.8,0.8,0.8h2.8
	c0.5,0,0.8-0.4,0.8-0.8V22.6z M24.4,21.8h-2.8c-0.5,0-0.8,0.4-0.8,0.8v2.8c0,0.5,0.4,0.8,0.8,0.8h2.8c0.5,0,0.8-0.4,0.8-0.8v-2.8
	C25.3,22.1,24.9,21.8,24.4,21.8z M19.9,28.5h-2.8c-0.5,0-0.8,0.4-0.8,0.8v5.9h4.5v-5.9C20.8,28.9,20.4,28.5,19.9,28.5z M12.6,19.5
	h2.8c0.5,0,0.8-0.4,0.8-0.8v-2.8c0-0.5-0.4-0.8-0.8-0.8h-2.8c-0.5,0-0.8,0.4-0.8,0.8v2.8C11.7,19.1,12.1,19.5,12.6,19.5z M24.4,15
	h-2.8c-0.5,0-0.8,0.4-0.8,0.8v2.8c0,0.5,0.4,0.8,0.8,0.8h2.8c0.5,0,0.8-0.4,0.8-0.8v-2.8C25.3,15.4,24.9,15,24.4,15z M34.3,36.2v1.4
	H2.7v-1.4c0-0.5,0.4-0.8,0.8-0.8h1.4V9.9c0-0.9,0.8-1.7,1.7-1.7h6.2V3.1c0-0.9,0.8-1.7,1.7-1.7h7.9c0.9,0,1.7,0.8,1.7,1.7v5.1h6.2
	c0.9,0,1.7,0.8,1.7,1.7v25.4h1.4C34,35.3,34.3,35.7,34.3,36.2z"/>
</svg>
