<?xml version="1.0" encoding="utf-8"?>
<!-- Generator: Adobe Illustrator 25.0.0, SVG Export Plug-In . SVG Version: 6.00 Build 0)  -->
<svg version="1.1" id="Layer_1" xmlns="http://www.w3.org/2000/svg" xmlns:xlink="http://www.w3.org/1999/xlink" x="0px" y="0px"
	 viewBox="0 0 37.4 37.4" style="enable-background:new 0 0 37.4 37.4;" xml:space="preserve">
<path d="M19.4,2.3V1.2h-1.7v1.1h-1.1v1.7h1.1v1.1h1.7V4.1h1.1V2.3H19.4z M19.2,0.3c0.2,0,0.5,0,0.7,0.1c2.3,0.2,4.4,1,6.3,2.3
	c0.1,0.1,0.1,0.1,0.1,0.2c-0.6,1.4-1.1,2.8-1.7,4.1c0,0,0,0,0,0.1c-4-1.3-8-1.3-12,0c0,0,0-0.1-0.1-0.1c-0.5-1.3-1.1-2.7-1.6-4
	c-0.1-0.1,0-0.2,0.1-0.3c1.5-1,3.1-1.7,4.8-2.1c0.7-0.1,1.3-0.2,2-0.3c0.1,0,0.1,0,0.2,0C18.4,0.3,18.8,0.3,19.2,0.3z"/>
<path d="M13.2,29.3c0.1,0.2,0.1,0.3,0.2,0.4c1.1,2.3,2.8,3.9,5.1,5.1c0.1,0,0.2,0,0.3,0c0.5-0.3,1-0.6,1.5-0.9
	c1.4-1,2.6-2.3,3.4-3.8c0.1-0.2,0.2-0.5,0.3-0.8c-0.1,0-0.1,0-0.2-0.1c-0.7-0.2-1.4-0.4-2.1-0.6c-0.1,0-0.2-0.1-0.2-0.2
	c-0.2-1.1-0.3-2.2-0.2-3.3c0,0,0-0.1,0-0.1c-1.8,0.9-3.5,0.9-5.3,0c0,0.1,0,0.1,0,0.1c0.1,1.1-0.1,2.2-0.2,3.3
	c0,0.1-0.1,0.2-0.2,0.2c-0.2,0-0.4,0.1-0.6,0.2C14.3,28.9,13.7,29.1,13.2,29.3z M11.8,13.5c-0.3-0.1-0.5-0.2-0.8-0.3
	c-0.3-0.1-0.5,0-0.6,0.3c-0.1,0.2-0.1,0.4-0.1,0.6c0,1.1,0.2,2.2,0.7,3.2c0.2,0.5,0.6,0.8,1.2,0.8c0.1,0,0.1,0.1,0.2,0.2
	c0.1,0.5,0.2,0.9,0.5,1.3c0.8,1.6,2,2.8,3.6,3.7c1.2,0.6,2.4,0.8,3.7,0.3c1.8-0.7,4.2-3,4.6-5.2c0-0.1,0.1-0.2,0.3-0.2
	c0.5-0.1,0.9-0.3,1.1-0.8c0.2-0.5,0.4-1,0.5-1.6c0.1-0.3,0.1-0.6,0.2-1c-4.7-0.3-9-1.7-12.5-5c-0.3,0.7-0.6,1.4-1,2
	C12.8,12.5,12.4,13,11.8,13.5z M26.7,6.7c0.2,0.5,0.5,0.9,0.7,1.4c0.8,1.6,1.2,3.3,1.6,5c0.2,1,0.4,2,0.4,3.1c0.1,3-0.9,5.5-3.4,7.4
	c-0.9,0.7-1.8,1.2-2.9,1.6c-0.2,0.1-0.2,0.1-0.2,0.3c0,0.6,0.1,1.1,0.1,1.7c0,0.1,0.1,0.2,0.2,0.2c1.7,0.5,3.4,1,5,1.7
	c0.4,0.2,0.7,0.3,1.1,0.5c1.1,0.5,1.9,1.4,2.4,2.5c0.5,1.2,0.8,2.4,0.9,3.7c0,0.4,0,0.8,0.1,1.2H4.5c0-0.2,0-0.4,0-0.6
	c0.1-1.5,0.3-2.9,0.9-4.2c0.5-1.2,1.3-2.1,2.5-2.6c0.6-0.3,1.2-0.5,1.7-0.8c1.4-0.5,2.8-1,4.2-1.4c0.2,0,0.2-0.1,0.2-0.3
	c0-0.6,0-1.1,0.1-1.7c0-0.2,0-0.2-0.2-0.3c-1.4-0.5-2.6-1.3-3.7-2.3c-1.4-1.3-2.2-2.9-2.5-4.8c-0.2-1.1-0.1-2.3,0.1-3.4
	C8.2,13.1,8.5,11.5,9,10c0.4-1.1,0.8-2.2,1.4-3.2c0,0,0.1-0.1,0.1-0.2c0.4,0.9,0.7,1.7,1.1,2.6c0.3-0.1,0.5-0.2,0.7-0.3
	c1.1-0.4,2.3-0.7,3.4-0.9c1.3-0.2,2.6-0.3,4-0.2c1.9,0.1,3.8,0.6,5.6,1.3c0.2,0.1,0.2,0.1,0.3-0.1C26,8.3,26.3,7.5,26.7,6.7
	L26.7,6.7z"/>
</svg>
