<?xml version="1.0" encoding="utf-8"?>
<!-- Generator: Adobe Illustrator 25.0.0, SVG Export Plug-In . SVG Version: 6.00 Build 0)  -->
<svg version="1.1" id="Layer_1" xmlns="http://www.w3.org/2000/svg" xmlns:xlink="http://www.w3.org/1999/xlink" x="0px" y="0px"
	 viewBox="0 0 37.4 37.4" style="enable-background:new 0 0 37.4 37.4;" xml:space="preserve">
<path d="M1.1,25c0.2-0.7,0.3-1.4,0.6-2.1c1.1-2.7,3.8-4.6,6.7-4.6c4,0,8.1,0,12.1,0c2.3,0,4.2,1,5.6,2.8c0,0.1,0.1,0.1,0.1,0.2
	c0,0,0,0,0,0.1c-0.1,0-0.3,0.1-0.4,0.1c-1.3,0.4-2.2,1.1-2.8,2.3c-0.4,0.8-0.8,1.6-1.2,2.5c-0.1,0-0.1,0-0.2-0.1
	c-0.7-0.3-1.4-0.5-2.1-0.5c-1.2,0-2.3,0-3.5,0c-3-0.1-5.3,2.9-4.3,5.8c0,0,0,0.1,0,0.2h-0.4c-2.9,0-5.8,0-8.8,0
	c-0.7,0-1.2-0.2-1.4-0.8V25z"/>
<path d="M15,0.6c0.4,0.1,0.9,0.2,1.3,0.3c3.3,0.9,5.5,4,5.4,7.4c-0.2,3.6-2.7,6.5-6.1,7c-4,0.7-7.9-2-8.5-5.9C6.4,5.3,9,1.5,13,0.8
	c0.2,0,0.4-0.1,0.6-0.1C14.1,0.6,14.6,0.6,15,0.6z"/>
<path d="M22.3,31.7c0.2-0.5,0.4-0.9,0.6-1.3c0.9-1.7,1.7-3.4,2.6-5.1c0.3-0.6,0.7-1,1.4-1c0.6,0,1.1,0.3,1.4,0.9
	c1.2,2.1,2.5,4.2,3.7,6.2c0.1,0.2,0.3,0.3,0.5,0.3c0.8,0,1.6,0,2.5,0c0.9,0,1.5,0.6,1.5,1.4c0,0.8-0.6,1.5-1.5,1.5
	c-1.2,0-2.4,0-3.7,0c-0.6,0-1-0.3-1.3-0.8c-0.9-1.5-1.8-3.1-2.8-4.6c-0.1-0.1-0.1-0.2-0.2-0.3c-0.1,0.2-0.1,0.3-0.2,0.4
	c-1,2-2,4-3,5.9c-0.4,0.8-1.1,1.1-1.8,0.8c-0.3-0.1-0.6-0.4-0.8-0.7c-0.8-1.1-1.5-2.3-2.3-3.4c-0.1-0.2-0.3-0.3-0.5-0.3
	c-0.8,0-1.7,0-2.5,0c-0.9,0-1.6-0.6-1.6-1.4c0-0.9,0.6-1.5,1.5-1.5c1.2,0,2.4,0,3.5,0c0.6,0,1,0.2,1.4,0.7
	C21.3,30.2,21.8,30.9,22.3,31.7z"/>
</svg>
