<?xml version="1.0" encoding="utf-8"?>
<!-- Generator: Adobe Illustrator 25.0.0, SVG Export Plug-In . SVG Version: 6.00 Build 0)  -->
<svg version="1.1" id="Layer_1" xmlns="http://www.w3.org/2000/svg" xmlns:xlink="http://www.w3.org/1999/xlink" x="0px" y="0px"
	 viewBox="0 0 100 100" style="enable-background:new 0 0 100 100;" xml:space="preserve">
<style type="text/css">
	.st0{clip-path:url(#SVGID_2_);}
	.st1{fill:#EE0013;}
	.st2{clip-path:url(#SVGID_3_);enable-background:new    ;}
	.st3{clip-path:url(#SVGID_4_);fill:#030707;}
</style>
<g>
	<defs>
		<rect id="SVGID_1_" x="1" y="1" width="97.9" height="97.9"/>
	</defs>
	<clipPath id="SVGID_2_">
		<use xlink:href="#SVGID_1_"  style="overflow:visible;"/>
	</clipPath>
	<g class="st0">
		<path class="st1" d="M60.6,181.4c-0.8,0.1-1.7,0.3-2.5,0.3c-6.5,0-13.1,0-19.6,0c-0.8,0-1.6-0.1-2.3-0.5c-1.1-0.6-1.6-1.9-1.3-3.1
			c0.3-1.2,1.3-2.1,2.6-2.1c1.6,0,3.2,0.1,4.7,0.1l0-19.4c-0.2,0-0.6,0-1.1,0c-4.3,0-8.5,0-12.8,0c-2.5,0-3.9-2.2-2.8-4.3
			c0.6-1.1,1.6-1.5,2.8-1.5c2.1,0,4.3,0.1,6.8,0.1c-0.1-0.7-0.3-1.1-0.3-1.6c0-26.2,0-52.5,0-78.7c0-2.5,0.5-3,2.9-3
			c1.6,0,3.1,0.1,4.8,0.2c0-3.6,0-6.9,0-10.2c0-3.2,0.2-3.4,3.4-3.5c0.1,0,0.2,0,0.4,0c0-11.1,0-22.1,0-33.2l0.3-0.1
			c1.2,1.2,2.4,2.3,3.5,3.5c0.2,0.3,0.2,0.8,0.2,1.3c0,8.9,0,17.9,0,26.8c0,0.5-0.1,1-0.2,1.6c0.6,0,1,0.1,1.3,0.1
			c2.2,0,2.7,0.5,2.7,2.8c0,3.1,0,6.3,0,9.4c0,0.4-0.1,0.8-0.2,1.4c1.9,0,3.5-0.1,5.2-0.1c2.2,0,2.7,0.6,2.7,2.7
			c0,19.9,0,39.8,0,59.7c0,6.5,0,13.1,0,19.6c0,0.4,0,0.7,0,1.3c2.2,0,4.4-0.1,6.7-0.1c1.2,0,2.2,0.6,2.7,1.7c0.5,1,0.3,2.1-0.4,3
			c-0.7,0.9-1.7,1.1-2.8,1.1c-4.2,0-8.4,0-12.6,0c-0.4,0-0.9,0-1.2,0l0,19.5c1.2,0,2.5-0.1,3.9-0.1c3,0,4.2,1.5,3.4,4.4L60.6,181.4z
			"/>
		<g>
			<defs>
				<path id="SVGID_5_" d="M91.1,14.8V66v4.7c-1.8,2.5-3.8,4.9-5.9,7.2V17.6c0-1.7-1.4-3.2-3.2-3.2H16.8c-1.7,0-3.2,1.4-3.2,3.2
					v73.8v16.7v2.1c-1.9-0.1-4-0.4-5.9-0.9V66V14.8C7.7,8.5,13,3.2,19.4,3.2h60.2C85.9,3.2,91.1,8.5,91.1,14.8z M39.5,10h19.8
					c1.5,0,1.5-2.6,0-2.6H39.5C38,7.3,38,10,39.5,10"/>
			</defs>
			<clipPath id="SVGID_3_">
				<use xlink:href="#SVGID_5_"  style="overflow:visible;"/>
			</clipPath>
			<g class="st2">
				<g>
					<defs>
						<rect id="SVGID_7_" x="7.7" y="3.2" width="83.8" height="107.1"/>
					</defs>
					<clipPath id="SVGID_4_">
						<use xlink:href="#SVGID_7_"  style="overflow:visible;"/>
					</clipPath>
					<rect x="7.7" y="3.2" class="st3" width="83.4" height="107"/>
				</g>
			</g>
		</g>
	</g>
</g>
</svg>
