<?xml version="1.0" encoding="utf-8"?>
<!-- Generator: Adobe Illustrator 25.0.0, SVG Export Plug-In . SVG Version: 6.00 Build 0)  -->
<svg version="1.1" id="Layer_1" xmlns="http://www.w3.org/2000/svg" xmlns:xlink="http://www.w3.org/1999/xlink" x="0px" y="0px"
	 viewBox="0 0 83 19" style="enable-background:new 0 0 83 19;" xml:space="preserve">
<style type="text/css">
	.st0{fill:#030707;}
	.st1{fill:#EE0013;}
	.st2{fill-rule:evenodd;clip-rule:evenodd;fill:#030707;}
	.st3{fill-rule:evenodd;clip-rule:evenodd;fill:#EE0013;}
</style>
<g>
	<path class="st0" d="M24.7,8.4h0.5c1.3,0,2-0.5,2-1.5c0-1-0.7-1.5-2-1.5h-0.5V8.4z M24.7,9.7v3.9h-1.4V4.1h1.6
		c0.8,0,1.4,0.1,1.8,0.2c0.4,0.1,0.8,0.3,1.1,0.6c0.5,0.5,0.8,1.2,0.8,2c0,0.9-0.3,1.6-0.9,2.1c-0.6,0.5-1.4,0.8-2.4,0.8H24.7z"/>
	<path class="st0" d="M29.8,3.2h1.4v4.9c0.5-0.4,1-0.7,1.6-0.7c0.7,0,1.2,0.2,1.6,0.7c0.3,0.4,0.5,1,0.5,1.8v3.7h-1.4V10
		c0-0.5-0.1-0.8-0.3-1c-0.2-0.2-0.4-0.3-0.8-0.3c-0.5,0-0.8,0.2-1,0.5c-0.2,0.3-0.3,0.8-0.3,1.6v2.9h-1.4V3.2z"/>
	<path class="st0" d="M37.9,10.6c0,0.6,0.2,1.1,0.5,1.4c0.3,0.4,0.8,0.5,1.3,0.5c0.5,0,1-0.2,1.3-0.5c0.3-0.4,0.5-0.8,0.5-1.4
		c0-0.6-0.2-1.1-0.5-1.4c-0.3-0.4-0.8-0.5-1.3-0.5c-0.5,0-1,0.2-1.3,0.5C38.1,9.6,37.9,10,37.9,10.6z M36.5,10.6
		c0-0.9,0.3-1.6,0.9-2.2c0.6-0.6,1.4-0.9,2.3-0.9c0.9,0,1.7,0.3,2.3,0.9c0.6,0.6,0.9,1.4,0.9,2.3c0,0.9-0.3,1.7-0.9,2.3
		c-0.6,0.6-1.4,0.9-2.3,0.9c-0.9,0-1.7-0.3-2.3-0.9C36.8,12.2,36.5,11.5,36.5,10.6z"/>
	<path class="st0" d="M44.4,7.6h1.4v0.6c0.5-0.5,1-0.7,1.6-0.7c0.7,0,1.2,0.2,1.6,0.7c0.3,0.4,0.5,1,0.5,1.8v3.7h-1.4v-3.4
		c0-0.6-0.1-1-0.2-1.2c-0.2-0.2-0.5-0.3-0.9-0.3c-0.5,0-0.8,0.2-1,0.5c-0.2,0.3-0.3,0.8-0.3,1.6v2.9h-1.4V7.6z"/>
	<path class="st0" d="M55.4,9.8C55.2,9,54.8,8.7,54,8.7c-0.2,0-0.3,0-0.5,0.1c-0.1,0.1-0.3,0.1-0.4,0.2c-0.1,0.1-0.2,0.2-0.3,0.4
		c-0.1,0.1-0.2,0.3-0.2,0.5H55.4z M56.9,10.9h-4.3c0,0.5,0.2,0.9,0.5,1.2c0.3,0.3,0.7,0.4,1.1,0.4c0.3,0,0.6-0.1,0.9-0.2
		c0.2-0.2,0.5-0.5,0.8-0.9l1.2,0.7c-0.2,0.3-0.4,0.6-0.6,0.8c-0.2,0.2-0.4,0.4-0.7,0.5c-0.2,0.1-0.5,0.2-0.7,0.3
		c-0.3,0.1-0.6,0.1-0.9,0.1c-0.9,0-1.6-0.3-2.2-0.9c-0.5-0.6-0.8-1.4-0.8-2.3c0-1,0.3-1.7,0.8-2.3c0.5-0.6,1.2-0.9,2.1-0.9
		c0.9,0,1.6,0.3,2.1,0.8c0.5,0.6,0.8,1.3,0.8,2.3L56.9,10.9z"/>
	<polygon class="st0" points="58.9,7.6 60.5,11 62,7.6 63.6,7.6 60.5,14 57.3,7.6 	"/>
	<path class="st0" d="M65.5,10.6c0,0.6,0.2,1,0.5,1.4c0.3,0.4,0.7,0.6,1.2,0.6c0.5,0,0.9-0.2,1.3-0.5c0.3-0.4,0.5-0.8,0.5-1.4
		c0-0.6-0.2-1-0.5-1.4c-0.3-0.4-0.7-0.5-1.2-0.5c-0.5,0-0.9,0.2-1.2,0.5C65.6,9.6,65.5,10,65.5,10.6z M68.8,7.6h1.4v6h-1.4V13
		c-0.6,0.5-1.2,0.8-1.9,0.8c-0.8,0-1.5-0.3-2.1-0.9c-0.5-0.6-0.8-1.4-0.8-2.3c0-0.9,0.3-1.7,0.8-2.3c0.5-0.6,1.2-0.9,2-0.9
		c0.7,0,1.3,0.3,1.9,0.9V7.6z"/>
	<path class="st0" d="M76.6,7.8v1.9C76.3,9.3,76,9,75.8,8.9c-0.2-0.1-0.5-0.2-0.9-0.2c-0.5,0-1,0.2-1.3,0.6
		c-0.3,0.4-0.5,0.8-0.5,1.4c0,0.6,0.2,1,0.5,1.4c0.3,0.4,0.8,0.5,1.3,0.5c0.3,0,0.6-0.1,0.9-0.2c0.2-0.1,0.5-0.4,0.9-0.8v1.8
		c-0.6,0.3-1.1,0.4-1.7,0.4c-0.9,0-1.7-0.3-2.3-0.9c-0.6-0.6-0.9-1.4-0.9-2.3c0-0.9,0.3-1.7,1-2.3c0.6-0.6,1.4-0.9,2.3-0.9
		C75.5,7.4,76.1,7.6,76.6,7.8z"/>
	<path class="st0" d="M82.7,7.8v1.9c-0.3-0.4-0.6-0.7-0.9-0.8c-0.2-0.1-0.5-0.2-0.9-0.2c-0.5,0-1,0.2-1.3,0.6
		c-0.3,0.4-0.5,0.8-0.5,1.4c0,0.6,0.2,1,0.5,1.4c0.3,0.4,0.8,0.5,1.3,0.5c0.3,0,0.6-0.1,0.9-0.2c0.2-0.1,0.5-0.4,0.9-0.8v1.8
		c-0.6,0.3-1.1,0.4-1.7,0.4c-0.9,0-1.7-0.3-2.3-0.9c-0.6-0.6-0.9-1.4-0.9-2.3c0-0.9,0.3-1.7,1-2.3C79.3,7.7,80,7.4,81,7.4
		C81.6,7.4,82.1,7.6,82.7,7.8z"/>
	<path class="st1" d="M12.8,9.6C12.8,9.6,12.9,9.7,12.8,9.6c0.2,0.1,0.2,0.1,0.3,0.1c0,0,0.1,0,0.1-0.1c0,0,0-0.1,0-0.1
		C13.2,9.4,12.9,9.5,12.8,9.6C12.8,9.5,12.8,9.6,12.8,9.6z M13.2,10.2C13.2,10.2,13.2,10.1,13.2,10.2c-0.2-0.1-0.2-0.1-0.3-0.1
		c0,0-0.1,0-0.1,0.1c0,0,0,0.1,0,0.1C12.9,10.3,13.2,10.3,13.2,10.2C13.2,10.3,13.3,10.2,13.2,10.2z M12.9,9c0.1,0,0.2,0,0.3,0
		c0.1,0,0.1-0.1,0.1-0.1c0-0.1,0-0.1-0.1-0.1c-0.1,0-0.2,0-0.3,0c0,0-0.1,0-0.1,0.1C12.8,8.9,12.8,9,12.9,9C12.9,9,12.9,9,12.9,9z
		 M13.5,10.8l0-2.4l-0.8,0l0,2.4H13.5z M13.7,12.5c0,0-0.1,0-0.1,0c-0.4,0-0.7,0-1.1,0c0,0-0.1,0-0.1,0c-0.1,0-0.1-0.1-0.1-0.2
		c0-0.1,0.1-0.1,0.1-0.1c0.1,0,0.2,0,0.3,0l0-1.1c0,0,0,0-0.1,0c-0.2,0-0.5,0-0.7,0c-0.1,0-0.2-0.1-0.2-0.2c0-0.1,0.1-0.1,0.2-0.1
		c0.1,0,0.2,0,0.4,0c0,0,0-0.1,0-0.1c0-1.5,0-2.9,0-4.4c0-0.1,0-0.2,0.2-0.2c0.1,0,0.2,0,0.3,0c0-0.2,0-0.4,0-0.6
		c0-0.2,0-0.2,0.2-0.2c0,0,0,0,0,0c0-0.6,0-1.2,0-1.8l0,0c0.1,0.1,0.1,0.1,0.2,0.2c0,0,0,0,0,0.1c0,0.5,0,1,0,1.5c0,0,0,0.1,0,0.1
		c0,0,0.1,0,0.1,0c0.1,0,0.2,0,0.2,0.2c0,0.2,0,0.4,0,0.5c0,0,0,0,0,0.1c0.1,0,0.2,0,0.3,0c0.1,0,0.2,0,0.2,0.2c0,1.1,0,2.2,0,3.3
		c0,0.4,0,0.7,0,1.1c0,0,0,0,0,0.1c0.1,0,0.2,0,0.4,0c0.1,0,0.1,0,0.2,0.1c0,0.1,0,0.1,0,0.2c0,0.1-0.1,0.1-0.2,0.1
		c-0.2,0-0.5,0-0.7,0c0,0,0,0-0.1,0l0,1.1c0.1,0,0.1,0,0.2,0C13.8,12.2,13.8,12.2,13.7,12.5L13.7,12.5z M10.8,12.9
		c0-0.1-0.1-0.3-0.3-0.3H5.9c-0.1,0-0.3,0.1-0.3,0.3c0,0.1,0.1,0.3,0.3,0.3h4.6C10.7,13.2,10.8,13,10.8,12.9z M10.8,11
		c0-0.1-0.1-0.3-0.3-0.3H5.9c-0.1,0-0.3,0.1-0.3,0.3c0,0.1,0.1,0.3,0.3,0.3h4.6C10.7,11.3,10.8,11.2,10.8,11z M10.8,9.1
		c0-0.1-0.1-0.3-0.3-0.3H5.9C5.8,8.9,5.7,9,5.7,9.1c0,0.1,0.1,0.3,0.3,0.3h4.6C10.7,9.4,10.8,9.3,10.8,9.1z"/>
	<path class="st2" d="M15.9,1.7V9v0.7c-0.3,0.4-0.5,0.7-0.8,1V2.1c0-0.2-0.2-0.5-0.5-0.5H5.2C5,1.6,4.8,1.8,4.8,2.1v10.6v2.4v0.3
		c-0.3,0-0.6-0.1-0.8-0.1V9V1.7C3.9,0.8,4.7,0,5.6,0h8.6C15.2,0,15.9,0.8,15.9,1.7z M8.5,1h2.8c0.2,0,0.2-0.4,0-0.4H8.5
		C8.3,0.6,8.3,1,8.5,1"/>
	<path class="st3" d="M0.8,16.6c-0.8-1.4-0.5-3.4,0.8-5.4c-0.6,1.3-0.7,2.6-0.1,3.6c1.4,2.4,6.2,2.3,10.7-0.4
		c4.5-2.6,7.1-6.7,5.7-9.1c-0.3-0.5-0.7-0.9-1.2-1.1V3.7C19,4,20.4,5.4,19.4,8.3c-0.9,2.5-3.3,4.9-7.1,7.1c2.8-1.2,5.2-3,7.2-5.3
		c-1.1,2.1-3.3,4.4-6.2,6C8,19.2,2.4,19.4,0.8,16.6"/>
</g>
</svg>
