<?xml version="1.0" encoding="utf-8"?>
<!-- Generator: Adobe Illustrator 25.0.0, SVG Export Plug-In . SVG Version: 6.00 Build 0)  -->
<svg version="1.1" id="Layer_1" xmlns="http://www.w3.org/2000/svg" xmlns:xlink="http://www.w3.org/1999/xlink" x="0px" y="0px"
	 viewBox="0 0 80 80" style="enable-background:new 0 0 80 80;" xml:space="preserve">
<style type="text/css">
	.st0{fill:#ff9a1e;}
</style>
<g>
	<rect x="0" y="0" class="st0" width="80" height="80"/>
</g>
<path d="M31.9,45.7c8.3-8.5,15.7-16.1,23.3-23.5c1.7-1.7,5.2-4.2,6.2-3.6c3,1.7,5.4,4.7,7.6,7.6c0.5,0.7-0.6,3.2-1.7,4.2
	C57,41,46.5,51.4,36,62c-2.5,2.5-4.7,2.7-7.2,0.1c-5.7-5.8-11.5-11.6-17.3-17.3c-2.6-2.5-2.6-4.8,0-7.2c1.2-1.1,2.4-2.3,3.5-3.5
	c2.2-2.3,4.3-2.2,6.4,0.1C24.8,37.8,28.1,41.4,31.9,45.7z"/>
</svg>
